#!OML:ASF E:\emotionWalksFemale\Project 1\Capture day 1\Session 1\Female1.ASF
:FULLY-SPECIFIED
:DEGREES
409
root 7.70292 15.1598 38.6025 185.972 -1.52809 -179.738
lowerback 7.7677 0.25193 0.771805
upperback -3.55601 0.47636 1.52922
thorax -8.12371 0.210687 1.11415
lowerneck -4.43159 -2.48369 -3.55843
upperneck 0.919161 -3.23133 3.94845
head 1.17463 -1.58118 1.76992
rclavicle -2.60905e-015 -2.78299e-015
rhumerus -44.8518 2.20971 -85.7638
rradius 35.4434
rwrist 11.1423
rhand -1.8626 -56.0049
rfingers 7.12502
rthumb 23.8052 -84.5501
lclavicle -2.60905e-015 -2.78299e-015
lhumerus -42.2744 -12.5244 97.0899
lradius 36.7122
lwrist -14.1633
lhand -4.78653 -34.0405
lfingers 7.12502
lthumb 20.9985 -5.15723
rfemur -29.7636 24.7929 13.5715
rtibia 23.312
rfoot -21.9578 -35.8422
rtoes 15.7679
lfemur 10.4976 -21.7105 -29.2714
ltibia 8.51563
lfoot -20.545 17.2456
ltoes -24.9351
410
root 7.72688 15.1768 38.5185 186.206 -1.76591 -179.673
lowerback 7.43469 0.222072 1.03896
upperback -3.5083 0.457214 1.56934
thorax -7.87643 0.187 1.0087
lowerneck -4.40216 -2.48832 -3.49049
upperneck 0.599068 -3.23603 3.85908
head 1.06423 -1.58702 1.72932
rclavicle 3.35449e-015 -4.37326e-015
rhumerus -44.6575 2.21646 -85.7362
rradius 35.6554
rwrist 11.1059
rhand -1.63797 -57.072
rfingers 7.12502
rthumb 24.0206 -85.5889
lclavicle 3.35449e-015 -4.37326e-015
lhumerus -42.0687 -12.5177 97.1618
lradius 36.5655
lwrist -14.2273
lhand -4.68882 -33.6252
lfingers 7.12502
lthumb 21.0924 -4.75235
rfemur -29.5055 24.4077 13.8972
rtibia 23.1186
rfoot -21.4521 -35.5969
rtoes 16.4041
lfemur 9.98109 -21.5203 -29.0305
ltibia 9.53127
lfoot -20.3455 16.8478
ltoes -24.6994
411
root 7.7496 15.1851 38.4312 185.932 -1.89153 -179.53
lowerback 7.83261 0.154823 1.09938
upperback -3.50889 0.394524 1.81612
thorax -8.11043 0.157586 1.24553
lowerneck -4.32725 -2.43904 -3.42901
upperneck 0.556184 -3.16509 3.55403
head 1.02629 -1.55485 1.62257
rclavicle 6.18717e-015 3.97569e-015
rhumerus -44.7918 2.89899 -85.8488
rradius 35.7995
rwrist 10.4193
rhand -2.02398 -57.2909
rfingers 7.12502
rthumb 23.6504 -85.8562
lclavicle 6.18717e-015 3.97569e-015
lhumerus -42.2112 -12.0161 97.2888
lradius 36.4617
lwrist -14.4348
lhand -4.14354 -33.1567
lfingers 7.12502
lthumb 21.6161 -4.34323
rfemur -28.6875 24.3017 14.4867
rtibia 22.9157
rfoot -21.2552 -35.5199
rtoes 15.8352
lfemur 9.98554 -21.1361 -28.8877
ltibia 10.6109
lfoot -20.1617 16.3458
ltoes -23.7293
412
root 7.77219 15.1972 38.3431 185.931 -1.97549 -179.34
lowerback 7.82214 0.103175 1.28712
upperback -3.52031 0.350333 1.99508
thorax -8.11675 0.127441 1.33634
lowerneck -4.03485 -2.35942 -3.40919
upperneck 0.146887 -3.05939 3.38378
head 0.838595 -1.50782 1.57016
rclavicle -3.95085e-015 9.54166e-015
rhumerus -44.8135 3.21966 -85.8309
rradius 35.6758
rwrist 10.4224
rhand -1.96153 -57.4951
rfingers 7.12502
rthumb 23.7103 -86.0526
lclavicle -3.95085e-015 9.54166e-015
lhumerus -42.27 -11.7224 97.3129
lradius 36.2716
lwrist -14.6212
lhand -3.59629 -33.3319
lfingers 7.12502
lthumb 22.1416 -4.57977
rfemur -28.2594 24.1773 14.9889
rtibia 22.831
rfoot -21.3065 -35.3668
rtoes 15.3856
lfemur 9.832 -20.5548 -28.5374
ltibia 11.3648
lfoot -19.6268 15.8378
ltoes -24.3094
413
root 7.79899 15.2151 38.2568 185.927 -2.19217 -179.296
lowerback 7.87788 0.0462744 1.39835
upperback -3.50503 0.290212 2.0709
thorax -8.13213 0.0931324 1.36316
lowerneck -4.24297 -2.32924 -3.44399
upperneck 0.22954 -3.0155 3.46084
head 0.901217 -1.48385 1.60008
rclavicle 1.03617e-014 6.44062e-014
rhumerus -44.63 3.156 -85.7763
rradius 35.4479
rwrist 10.6163
rhand -2.02868 -56.7775
rfingers 7.12502
rthumb 23.6459 -85.3434
lclavicle 1.03617e-014 6.44062e-014
lhumerus -42.3719 -11.7732 97.4324
lradius 36.1976
lwrist -14.6376
lhand -3.7532 -33.1772
lfingers 7.12502
lthumb 21.9909 -4.40734
rfemur -27.7722 23.9919 15.3551
rtibia 22.7723
rfoot -21.6413 -35.1487
rtoes 15.1843
lfemur 9.76661 -20.3751 -28.3797
ltibia 12.04
lfoot -18.8903 15.6628
ltoes -27.3783
414
root 7.82879 15.2396 38.1654 185.989 -2.31805 -179.478
lowerback 7.80944 0.050689 1.17453
upperback -3.44511 0.272998 2.11835
thorax -8.02872 0.098745 1.54056
lowerneck -4.5957 -2.33817 -3.46206
upperneck 0.397501 -3.01982 3.45335
head 1.01545 -1.48337 1.59762
rclavicle 6.5102e-015 1.19271e-014
rhumerus -44.3842 3.28168 -85.8293
rradius 35.4122
rwrist 10.2394
rhand -2.66975 -54.9231
rfingers 7.12502
rthumb 23.0309 -83.567
lclavicle 6.5102e-015 1.19271e-014
lhumerus -42.3426 -11.7974 97.5543
lradius 36.2245
lwrist -14.6829
lhand -3.51912 -32.5261
lfingers 7.12502
lthumb 22.2157 -3.78278
rfemur -27.322 23.5888 15.5389
rtibia 22.7072
rfoot -20.4609 -34.8957
rtoes 12.2209
lfemur 9.5878 -20.1121 -28.4192
ltibia 12.8202
lfoot -18.2175 15.3963
ltoes -26.7541
415
root 7.86019 15.265 38.0686 186.174 -2.32127 -179.548
lowerback 7.53352 0.0927517 0.997973
upperback -3.44399 0.305016 2.20026
thorax -7.86908 0.12414 1.72043
lowerneck -4.85931 -2.35329 -3.25888
upperneck 0.555906 -3.03973 3.17569
head 1.10132 -1.49383 1.46999
rclavicle 5.06901e-015 -1.74931e-014
rhumerus -44.4978 3.43998 -85.9181
rradius 35.6871
rwrist 10.0792
rhand -3.09681 -54.0755
rfingers 7.12502
rthumb 22.6211 -82.7699
lclavicle 5.06901e-015 -1.74931e-014
lhumerus -42.3643 -11.7593 97.6545
lradius 36.1637
lwrist -14.7356
lhand -2.66921 -32.006
lfingers 7.12502
lthumb 23.0314 -3.36217
rfemur -27.0946 23.2737 15.7959
rtibia 22.8013
rfoot -16.6284 -34.887
rtoes 5.18403
lfemur 9.41758 -19.2982 -28.1487
ltibia 13.2255
lfoot -17.5033 14.458
ltoes -26.6509
